 <svg  version="1.0" xmlns="http://www.w3.org/2000/svg"  width="300.000000pt" height="116.000000pt" viewBox="0 0 300.000000 116.000000"  preserveAspectRatio="xMidYMid meet">  <g transform="translate(0.000000,116.000000) scale(0.100000,-0.100000)" fill="#f00e09" stroke="none"> <path d="M2640 967 c-62 -31 -24 -83 85 -117 41 -13 75 -27 75 -31 0 -11 -129 -113 -180 -142 -65 -37 -132 -50 -194 -37 -67 14 -98 43 -141 135 -36 76 -63 103 -124 123 -82 28 -197 2 -312 -73 -37 -24 -136 -110 -220 -192 -181 -176 -243 -226 -324 -264 -90 -43 -169 -36 -194 18 -6 13 -11 61 -11 107 0 149 -47 239 -153 290 -211 103 -504 -48 -751 -384 -71 -96 -140 -244 -141 -300 0 -43 1 -45 32 -48 28 -3 34 2 59 45 171 297 366 496 547 557 62 21 150 20 194 0 57 -28 67 -54 73 -184 5 -93 10 -124 29 -164 44 -90 147 -131 265 -107 120 25 214 89 416 286 180 175 223 211 304 254 111 59 184 39 216 -59 18 -54 70 -114 123 -139 140 -68 301 -36 427 85 l60 57 0 -82 c0 -92 16 -141 53 -165 58 -39 85 13 97 186 6 73 14 159 18 191 15 99 -2 113 -167 146 -120 24 -128 25 -161 8z"/> </g> </svg> 